<?xml version="1.0" encoding="UTF-8"?>
<svg width="240" height="180" viewBox="0 0 240 180" fill="none" xmlns="http://www.w3.org/2000/svg">
  <rect width="240" height="180" rx="8" fill="#F3F4F6"/>
  <path d="M120 60C109.5 60 101 68.5 101 79C101 89.5 109.5 98 120 98C130.5 98 139 89.5 139 79C139 68.5 130.5 60 120 60ZM120 92C112.8 92 107 86.2 107 79C107 71.8 112.8 66 120 66C127.2 66 133 71.8 133 79C133 86.2 127.2 92 120 92Z" fill="#9CA3AF"/>
  <path d="M120 70C118.3 70 117 71.3 117 73C117 74.7 118.3 76 120 76C121.7 76 123 74.7 123 73C123 71.3 121.7 70 120 70Z" fill="#9CA3AF"/>
  <path d="M120 78C118.9 78 118 78.9 118 80V86C118 87.1 118.9 88 120 88C121.1 88 122 87.1 122 86V80C122 78.9 121.1 78 120 78Z" fill="#9CA3AF"/>
  <path d="M156 120H84C82.9 120 82 119.1 82 118V40C82 38.9 82.9 38 84 38H156C157.1 38 158 38.9 158 40V118C158 119.1 157.1 120 156 120ZM88 114H152V44H88V114Z" fill="#9CA3AF"/>
  <path d="M140 142H100C98.9 142 98 141.1 98 140C98 138.9 98.9 138 100 138H140C141.1 138 142 138.9 142 140C142 141.1 141.1 142 140 142Z" fill="#9CA3AF"/>
  <path d="M120 130C118.9 130 118 129.1 118 128V120C118 118.9 118.9 118 120 118C121.1 118 122 118.9 122 120V128C122 129.1 121.1 130 120 130Z" fill="#9CA3AF"/>
  <path d="M120 142C118.9 142 118 141.1 118 140C118 138.9 118.9 138 120 138C121.1 138 122 138.9 122 140C122 141.1 121.1 142 120 142Z" fill="#9CA3AF"/>
</svg> 